
<mxfile host="app.diagrams.net">
  <diagram name="Component Diagram" id="3">
    <mxGraphModel dx="1070" dy="647" grid="1" gridSize="10">
      <root>
        <mxCell id="0"/>
        <mxCell id="1" parent="0"/>
        <mxCell id="2" value="Core Service" style="shape=component;" vertex="1" parent="1">
          <mxGeometry x="40" y="40" width="180" height="80" as="geometry"/>
        </mxCell>
        <mxCell id="3" value="Mail Service" style="shape=component;" vertex="1" parent="1">
          <mxGeometry x="280" y="40" width="180" height="80" as="geometry"/>
        </mxCell>
        <mxCell id="4" value="Kafka Broker" style="shape=cylinder;" vertex="1" parent="1">
          <mxGeometry x="520" y="40" width="120" height="80" as="geometry"/>
        </mxCell>
      </root>
    </mxGraphModel>
  </diagram>
</mxfile>
